<?xml version="1.0" ?><!DOCTYPE svg  PUBLIC '-//W3C//DTD SVG 1.1//EN'  'http://www.w3.org/Graphics/SVG/1.1/DTD/svg11.dtd'><svg height="2048px" style="shape-rendering:geometricPrecision; text-rendering:geometricPrecision; image-rendering:optimizeQuality; fill-rule:evenodd; clip-rule:evenodd" viewBox="0 0 2048 2048" width="2048px" xml:space="preserve" xmlns="http://www.w3.org/2000/svg" xmlns:xlink="http://www.w3.org/1999/xlink"><defs><style type="text/css">
   <![CDATA[
    .fil2 {fill:none}
    .fil1 {fill:#596EC1}
    .fil0 {fill:#333333;fill-rule:nonzero}
   ]]>
  </style></defs><g id="Layer_x0020_1"><path class="fil0" d="M695.008 1415.52c0,11.3976 -4.03701,21.1441 -11.1189,28.2555l-0.0318898 0.0307087 -0.0307087 0.0318898c-7.11733,7.08662 -16.8709,11.1201 -28.2579,11.1201l-344.131 0c-11.3268,0 -21.15,-4.05945 -28.2756,-11.185 -7.05237,-7.05237 -11.1626,-16.7953 -11.1626,-28.2532l0 -65.6682c0,-54.567 23.5264,-111.998 64.3713,-153.967 36.6792,-37.6878 87.2481,-63.065 147.28,-63.065 58.0949,0 111.072,24.4536 149.469,63.9662 38.1508,39.2587 61.8886,93.3686 61.8886,153.066l0 65.6682zm-33.6815 5.69292c1.0689,-1.0689 1.68071,-3.01772 1.68071,-5.69292l0 -65.6682c0,-51.1075 -20.2382,-97.3465 -52.7634,-130.817 -32.5429,-33.489 -77.4142,-54.215 -126.593,-54.215 -50.6776,0 -93.3969,21.4536 -124.404,53.3138 -35.054,36.0189 -55.2461,85.1493 -55.2461,131.718l0 65.6682c0,2.57481 0.657875,4.49882 1.78701,5.62796 1.15158,1.15158 3.10512,1.80945 5.6504,1.80945l344.131 0c2.67402,0 4.62402,-0.61063 5.69528,-1.68189l0.0625985 -0.0625985z"/><path class="fil0" d="M485.327 751.166c53.576,0 102.137,21.7276 137.316,56.8264 35.217,35.1355 57.0142,83.6233 57.0142,137.092 0,53.5748 -21.7595,101.993 -56.9256,137.055 -35.1922,35.0859 -83.7898,56.7449 -137.405,56.7449 -53.4508,0 -101.972,-21.6756 -137.112,-56.7874 -35.0929,-35.0634 -56.8359,-83.465 -56.8359,-137.013 0,-53.4839 21.7571,-101.95 56.8607,-137.049 35.1284,-35.1225 83.6327,-56.8689 137.087,-56.8689zm114.816 79.4516c-29.3752,-29.3079 -69.9756,-47.4508 -114.816,-47.4508 -44.6244,0 -85.1233,18.1606 -114.462,47.4933 -29.3162,29.3114 -47.4851,69.7784 -47.4851,114.424 0,44.7827 18.1087,85.1859 47.3351,114.387 29.3386,29.315 69.8953,47.4118 114.612,47.4118 44.8926,0 85.5284,-18.0803 114.905,-47.3693 29.2973,-29.2099 47.4248,-69.6296 47.4248,-114.43 0,-44.7048 -18.1642,-85.1847 -47.5134,-114.467z"/><path class="fil0" d="M1210.76 1415.93c0,11.4248 -4.03347,21.0437 -11.0539,28.037 -7.07599,7.04882 -16.7847,10.989 -28.0607,10.989l-382.098 0c-11.2724,0 -20.9917,-3.94016 -28.0795,-10.9925 -7.02284,-6.98859 -11.0646,-16.6051 -11.0646,-28.0335l0 -73.3442c0,-66.5044 25.8248,-124.369 66.2186,-166.21 42.4465,-43.9654 100.971,-70.2024 162.578,-70.2024 66.7985,0 122.528,27.0319 162.654,67.9831 44.1839,45.0922 69.3178,107.121 69.3178,168.429l-0.0625985 0.0625985 -0.412205 73.2816 0.0625985 0zm-33.554 5.41182c0.98504,-0.981497 1.55315,-2.81811 1.55315,-5.41182l0.0625985 -0.0625985 0.412205 -73.2816 -0.0625985 0c0,-53.1898 -21.7795,-106.978 -60.0674,-146.054 -34.4445,-35.152 -82.3678,-58.3571 -139.904,-58.3571 -52.8567,0 -103.102,22.5461 -139.577,60.326 -34.9028,36.1536 -57.2185,86.302 -57.2185,144.085l0 73.3442c0,2.58544 0.571654,4.42205 1.56378,5.40827 1.04173,1.03701 2.96339,1.61693 5.57953,1.61693l382.098 0c2.60788,0 4.52244,-0.578741 5.56063,-1.61339z"/><path class="fil0" d="M979.609 678.234c59.3516,0 113.153,24.0166 152.086,62.9493 38.8441,38.8418 62.889,92.53 62.889,152.025 0,59.2902 -24.1004,113.037 -63.0189,151.956 -38.9185,38.9185 -92.6658,63.0189 -151.956,63.0189 -59.4969,0 -113.192,-24.0473 -152.043,-62.8926 -38.9374,-38.9327 -62.9599,-92.7331 -62.9599,-152.082 0,-119.147 95.8572,-214.974 215.003,-214.974zm129.461 85.5745c-33.1335,-33.1335 -78.9308,-53.5737 -129.461,-53.5737 -101.412,0 -183.003,81.5623 -183.003,182.973 0,50.5264 20.4449,96.3225 53.5843,129.457 33.0591,33.0544 78.7642,53.517 129.418,53.517 50.4579,0 96.202,-20.5146 129.331,-53.6433 33.1288,-33.1288 53.6433,-78.8729 53.6433,-129.331 0,-50.6516 -20.4614,-96.3485 -53.5134,-129.399z"/><path class="fil0" d="M1776 1415.93c0,11.4957 -4.07835,21.1701 -11.2713,28.2 -7.1067,6.94489 -16.8532,10.826 -28.2851,10.826l-430.739 0c-11.439,0 -21.0591,-4.00866 -28.0559,-10.9689 -7.11733,-7.08071 -11.0882,-16.7965 -11.0882,-28.0571l0 -87.5481c0,-75.4347 29.1862,-137.204 72.7359,-181.632 49.4457,-50.4426 117.524,-78.3355 182.41,-78.3355l0.0531496 0c73.0796,0 136.675,30.515 182.012,78.339 45.1819,47.6611 72.1524,112.576 72.1666,181.576l0.0625985 0 0 0.0531496 0 87.5481zm-33.5209 5.32441c0.968505,-0.947245 1.52008,-2.7567 1.52008,-5.32441l0 -87.5481 0 -0.0531496 0.0625985 0c-0.0129921,-60.6461 -23.7118,-117.696 -63.4146,-159.577 -39.5481,-41.7189 -95.0611,-68.3375 -158.888,-68.3375l-0.0531496 0c-56.7059,0 -116.289,24.4654 -159.659,68.7095 -38.0103,38.778 -63.4855,92.9068 -63.4855,159.258l0 87.5481c0,2.54764 0.569292,4.41851 1.5874,5.43189 1.01457,1.00984 2.90079,1.59331 5.55591,1.59331l430.739 0c2.85236,0 4.9193,-0.609449 6.03544,-1.70079z"/><path class="fil0" d="M1519.33 593.039c64.565,0 123.073,26.5477 165.46,69.4193 42.3237,42.8091 68.5123,101.901 68.5123,167.053 0,64.9465 -26.2169,123.88 -68.5843,166.59 -42.3567,42.7004 -100.836,69.1465 -165.388,69.1465 -64.7457,0 -123.344,-26.4307 -165.782,-69.1099 -42.4677,-42.7075 -68.7201,-101.655 -68.7201,-166.627 0,-65.178 26.2488,-124.306 68.7119,-167.152 42.4288,-42.8115 101.028,-69.3201 165.79,-69.3201zm142.709 91.7942c-36.5091,-36.926 -86.9682,-59.7934 -142.709,-59.7934 -55.9512,0 -106.552,22.8756 -143.165,59.8193 -36.6685,36.9992 -59.3363,88.1635 -59.3363,144.652 0,56.2619 22.6701,107.245 59.3445,144.126 36.6048,36.8126 87.2009,59.6091 143.157,59.6091 55.7481,0 106.226,-22.813 142.762,-59.6457 36.5752,-36.8705 59.2087,-87.8398 59.2087,-144.09 0,-56.4756 -22.6536,-107.649 -59.2619,-144.678z"/><path class="fil1" d="M647.657 945.085c0,-44.7048 -18.1642,-85.1847 -47.5134,-114.467 -29.3752,-29.3079 -69.9756,-47.4508 -114.816,-47.4508 -44.6244,0 -85.1233,18.1606 -114.462,47.4933 -29.3162,29.3114 -47.4851,69.7784 -47.4851,114.424 0,44.7827 18.1087,85.1859 47.3351,114.387 29.3386,29.315 69.8953,47.4118 114.612,47.4118 44.8926,0 85.5284,-18.0803 114.905,-47.3693 29.2973,-29.2099 47.4248,-69.6296 47.4248,-114.43z"/><path class="fil1" d="M979.609 710.235c-101.412,0 -183.003,81.5623 -183.003,182.973 0,50.5264 20.4449,96.3225 53.5843,129.457 33.0591,33.0544 78.7642,53.517 129.418,53.517 50.4579,0 96.202,-20.5146 129.331,-53.6433 33.1288,-33.1288 53.6433,-78.8729 53.6433,-129.331 0,-50.6516 -20.4614,-96.3485 -53.5134,-129.399 -33.1335,-33.1335 -78.9308,-53.5737 -129.461,-53.5737z"/><path class="fil1" d="M1316.83 829.511c0,56.2619 22.6701,107.245 59.3445,144.126 36.6048,36.8126 87.2009,59.6091 143.157,59.6091 55.7481,0 106.226,-22.813 142.762,-59.6457 36.5752,-36.8705 59.2087,-87.8398 59.2087,-144.09 0,-56.4756 -22.6536,-107.649 -59.2619,-144.678 -36.5091,-36.926 -86.9682,-59.7934 -142.709,-59.7934 -55.9512,0 -106.552,22.8756 -143.165,59.8193 -36.6685,36.9992 -59.3363,88.1635 -59.3363,144.652z"/><path class="fil1" d="M1521.71 1100.42c-56.7059,0 -116.289,24.4654 -159.659,68.7095 -38.0103,38.778 -63.4855,92.9068 -63.4855,159.258l0 87.5481c0,2.54764 0.569292,4.41851 1.5874,5.43189 1.01457,1.00984 2.90079,1.59331 5.55591,1.59331l430.739 0c2.85236,0 4.9193,-0.609449 6.03544,-1.70079 0.968505,-0.947245 1.52008,-2.7567 1.52008,-5.32441l0 -87.5481 0 -0.0531496 0.0625985 0c-0.0129921,-60.6461 -23.7118,-117.696 -63.4146,-159.577 -39.5481,-41.7189 -95.0611,-68.3375 -158.888,-68.3375l-0.0531496 0z"/><path class="fil1" d="M1179.17 1342.59c0,-53.1898 -21.7795,-106.978 -60.0674,-146.054 -34.4445,-35.152 -82.3678,-58.3571 -139.904,-58.3571 -52.8567,0 -103.102,22.5461 -139.577,60.326 -34.9028,36.1536 -57.2185,86.302 -57.2185,144.085l0 73.3442c0,2.58544 0.571654,4.42205 1.56378,5.40827 1.04173,1.03701 2.96339,1.61693 5.57953,1.61693l382.098 0c2.60788,0 4.52244,-0.578741 5.56063,-1.61339 0.98504,-0.981497 1.55315,-2.81811 1.55315,-5.41182l0.0625985 -0.0625985 0.412205 -73.2816 -0.0625985 0z"/><path class="fil1" d="M663.008 1349.85c0,-51.1075 -20.2382,-97.3465 -52.7634,-130.817 -32.5429,-33.489 -77.4142,-54.215 -126.593,-54.215 -50.6776,0 -93.3969,21.4536 -124.404,53.3138 -35.054,36.0189 -55.2461,85.1493 -55.2461,131.718l0 65.6682c0,2.57481 0.657875,4.49882 1.78701,5.62796 1.15158,1.15158 3.10512,1.80945 5.6504,1.80945l344.131 0c2.67402,0 4.62402,-0.61063 5.69528,-1.68189l0.0625985 -0.0625985c1.0689,-1.0689 1.68071,-3.01772 1.68071,-5.69292l0 -65.6682z"/></g><rect class="fil2" height="2048" width="2048"/></svg>